<svg xmlns="http://www.w3.org/2000/svg" viewBox="0 0 2355 628"><defs><style>.a{fill:#f8b123}.b{fill:#164863}</style></defs><path class="a" d="M2.28-.17H273.49C402.78-.17 484.06 51.37 484.06 134c0 52.89-47 90.73-94 103.8L264.7 206.82c67.58 0 113.57-24.77 113.57-70.14s-46-70.17-113.57-70.17H108Z"/><path class="b" d="M492.65 345.21c0-90.07-87.19-138.19-210.54-138.19l-18.95-.2H.05v282.82h263.37l18.69-.18c123.35 0 210.54-48.16 210.54-138.21 0-1.06-.11-2-.13-3s.13-2 .13-3.04ZM272.3 422.77H105.79V273.52H272.3c73.42 0 114.58 31 114.58 74.28s-41.16 74.97-114.58 74.97ZM1209.32 558.24c-9.93 19.52-21.76 33.34-36.63 43.8-27.66 19.43-64.22 25.65-102.76 25.65h-40.61v-63.86h25.76c42.48 0 57.33-9 72.13-37.55l27.69-54.78L979.9 136h106.77l119.7 248L1323 136h107.8ZM772.47 490.52c-111.16 0-220.38-47.93-220.38-178s109.22-177.39 220.38-177.39c68.22 0 116 13.67 162.82 48.57l-68.23 46.61c-31.2-23.94-55.61-32.85-94.59-32.85-38.05 0-70.24 11-91.6 30.82-21.45 19.12-29.32 43.81-29.32 84.24s7.87 65.7 29.32 84.84c21.36 19.91 53.55 30.82 91.6 30.82 39 0 63.39-8.86 94.59-32.87l68.23 45.9c-46.78 34.95-94.6 49.32-162.82 49.32ZM1659.32 489c-80.69 0-148.79-9.61-207.1-49.81l65.17-45.81c39.83 28.69 93.29 36.18 141.93 36.18 60.25 0 107.85-15 107.85-47.76 0-23.25-18.46-38.18-66.05-40.95l-78.77-4.75c-92.36-5.49-145.8-34.86-145.8-95.59 0-67.63 82.65-105.83 185.67-105.83 73.85 0 137.06 10.94 182.74 38.93l-62.2 44.33c-31.15-18.44-74.89-25.23-121.53-25.23-59.3 0-89.37 18.42-89.37 44.37 0 20.47 15.49 36.18 68 39.59l77.77 4.77c92.38 5.47 146.76 36.15 146.76 97.61 0 72.28-87.46 109.85-205.05 109.85ZM2342.82 243l-65.15 5.34-48.51 4.45c-142.89 12.6-304.93 26.91-304.93 133.85 0 92.2 102.53 106 163.68 106 62.9 0 121.66-14 179.53-42.76l1.16-.53 1.09.55c1.11.6 1.11.6 7 26.89 0-.05 1.11 3.76 1.77 6.05h76.31c-.55-2.33-1.22-5.58-2.45-11.36-3.51-16.21-6.23-29-6.23-46.94V242.62c-1 .09-1.9.15-3.31.33m-345 143.64c0-53.19 111.56-66.52 269.24-79.48l2.67-.28v80.78l-1.47.67c-28.13 12.7-103 46.39-183.24 46.39-20.44 0-87.24-3.44-87.24-48.08"/><path class="a" d="M2154.52 135.73c-133.7.23-177.29 45.55-200.71 69.85l-9 9.45c5.76 3.25 20.66 11.88 59.78 34.5 1.14-1.11 2.59-2.5 5.24-5.09 18.31-17.75 52.34-50.79 149-50.79 84.17-.22 146.11 12.62 168 24.63l19.29 10.06c-2-9.24-7.08-19.44-7.8-20.77-10.57-19.76-38.63-72.08-183.81-71.84"/></svg>
